<?xml version="1.0" encoding="utf-8"?>
<!-- Generator: Adobe Illustrator 16.0.0, SVG Export Plug-In . SVG Version: 6.00 Build 0)  -->
<!DOCTYPE svg PUBLIC "-//W3C//DTD SVG 1.1//EN" "http://www.w3.org/Graphics/SVG/1.1/DTD/svg11.dtd">
<svg version="1.1" id="Layer_1" xmlns="http://www.w3.org/2000/svg" xmlns:xlink="http://www.w3.org/1999/xlink" x="0px" y="0px"
	 width="450px" height="146px" viewBox="0 0 450 146" enable-background="new 0 0 450 146" xml:space="preserve">
<g>
	<path fill="#FFFFFF" d="M263.244,141.938c-17.439,4.863-34.711,4.615-51.793-1.067c-11.972-3.985-22.505-10.212-30.231-20.479
		c-1.478-1.963-2.902-4.062-3.836-6.313c-0.963-2.321-2.353-2.849-4.707-2.847c-55.893,0.049-111.787,0.029-167.68-0.023
		c-1.858-0.002-4.867,0.945-4.771-2.199c0.086-2.837,2.963-1.887,4.741-1.889c59.09-0.038,118.181-0.02,177.272-0.078
		c2.444-0.004,3.694,0.559,4.798,3.014c5.788,12.875,16.392,20.668,28.944,26.025c14.445,6.165,29.583,7.785,45.13,5.962
		C261.818,141.957,262.535,141.969,263.244,141.938z M1.107,108.574c0.126,0.201,0.253,0.4,0.38,0.604
		c1.585-0.212,3.172-0.604,4.758-0.607c53.51-0.032,107.02-0.03,160.529-0.033c4.536-0.001,9.076-0.092,13.606,0.066
		c0.983,0.035,2.506,0.746,2.812,1.525c4.016,10.184,11.451,17.217,20.597,22.682c6.644,3.97,13.736,6.844,21.539,8.527
		c-5.858-2.433-11.656-4.427-17.067-7.179c-10.154-5.161-18.586-12.317-22.987-23.188c-1.042-2.572-2.249-3.229-4.896-3.226
		c-52.687,0.083-105.371,0.06-158.057,0.058c-5.979,0-11.96-0.037-17.938,0.035C3.288,107.852,2.199,108.316,1.107,108.574z"/>
	<path fill="#FFFFFF" d="M184.083,1.963c6.185-0.789,12.35-1.973,18.559-2.29c18.835-0.961,36.492,2.951,52.14,13.96
		c6.677,4.695,12.142,10.576,15.478,18.132c0.918,2.083,2.402,1.886,4.025,1.887c29.188,0.005,58.377,0.008,87.563,0.01
		c27.126,0.001,54.251,0,81.376,0c0.618,0,1.387-0.229,1.823,0.053c0.767,0.498,1.815,1.293,1.84,1.992
		c0.021,0.662-1.012,1.582-1.789,1.98c-0.657,0.337-1.614,0.1-2.44,0.1c-59.405,0.015-118.814,0.019-178.222,0.079
		c-2.124,0.003-3.19-0.591-4.106-2.657c-5.674-12.806-16.062-20.663-28.477-26.101c-14.701-6.439-30.118-8.155-45.992-6.238
		c-0.505,0.062-1.019,0.051-1.528,0.074C184.249,2.615,184.166,2.289,184.083,1.963z M446.082,36.43
		c-0.104-0.244-0.209-0.488-0.312-0.733c-1.765,0.215-3.527,0.614-5.29,0.616c-30.217,0.039-60.436,0.027-90.651,0.027
		c-27.33,0-54.661-0.036-81.989,0.059c-2.558,0.009-3.718-0.758-4.729-3.145c-1.308-3.089-3.086-6.092-5.182-8.717
		c-8.004-10.023-18.812-15.792-30.811-19.61c-0.905-0.288-1.854-0.447-3.45-0.824c5.488,2.337,10.459,4.089,15.086,6.496
		c10.188,5.3,18.858,12.343,23.146,23.434c0.999,2.584,2.28,3.057,4.706,3.05c26.916-0.064,53.834-0.035,80.752-0.035
		c31.66,0,63.322,0.002,94.983-0.033C443.587,37.015,444.834,36.634,446.082,36.43z"/>
</g>
<g>
	<path fill="#FFFFFF" d="M28.072,98.631v-44.92c-0.828-0.045-1.67,0.046-2.521,0.276c-0.854,0.231-1.613,0.587-2.281,1.071
		c-0.668,0.483-1.221,1.095-1.659,1.832c-0.438,0.737-0.656,1.589-0.656,2.557v39.184h-7.118v-44.92
		c-2.443-0.092-4.297,0.495-5.563,1.763c-1.268,1.267-1.899,3.144-1.899,5.632v37.525h-6.911V62.004c0-1.75,0.264-3.42,0.794-5.01
		c0.53-1.59,1.279-2.994,2.247-4.216c0.967-1.22,2.13-2.2,3.49-2.938c1.358-0.736,2.891-1.105,4.596-1.105h3.179
		c1.013,0,1.993,0.196,2.938,0.587c0.943,0.392,1.784,0.91,2.521,1.555c0.875-0.645,1.797-1.163,2.766-1.555
		c0.968-0.391,2.072-0.587,3.316-0.587h2.626c0.875,0,1.751,0.15,2.626,0.449c0.875,0.3,1.659,0.703,2.351,1.21
		c0.689,0.507,1.255,1.105,1.692,1.796s0.656,1.452,0.656,2.281v44.16H28.072z"/>
	<path fill="#FFFFFF" d="M58.964,98.562V69.398H48.113v29.165h-7.187V62.004c0-1.843,0.311-3.569,0.933-5.183
		c0.622-1.612,1.485-3.018,2.593-4.216c1.104-1.198,2.384-2.143,3.835-2.833c1.45-0.691,3.006-1.037,4.664-1.037h6.081
		c2.305,0,4.021,0.599,5.149,1.797c1.128,1.198,1.693,2.649,1.693,4.354v43.677H58.964L58.964,98.562z M58.964,54.057
		c-1.106,0-2.062-0.011-2.868-0.035c-0.807-0.022-1.521,0-2.143,0.069c-0.622,0.069-1.209,0.217-1.763,0.446
		c-0.553,0.229-1.151,0.596-1.797,1.1c-0.875,0.687-1.475,1.533-1.797,2.54c-0.323,1.007-0.484,2.13-0.484,3.364V64.7h10.852V54.057
		z"/>
	<path fill="#FFFFFF" d="M84.671,53.503v45.06h-7.118v-45.06H70.85v-4.837h20.042v4.837H84.671z"/>
	<path fill="#FFFFFF" d="M112.108,53.573c-1.105,0-2.062-0.011-2.869-0.034c-0.807-0.023-1.52,0-2.142,0.069
		s-1.209,0.219-1.762,0.449c-0.554,0.231-1.152,0.599-1.797,1.105c-0.875,0.691-1.476,1.544-1.797,2.558
		c-0.323,1.014-0.483,2.142-0.483,3.386v3.732h7.878v4.699h-7.878v24.257h10.711v4.769h-10.781c-2.304,0-4.065-0.553-5.287-1.657
		c-1.222-1.106-1.832-2.466-1.832-4.078V62.004c0-1.843,0.312-3.569,0.935-5.183c0.622-1.612,1.484-3.018,2.591-4.216
		s2.384-2.143,3.835-2.833c1.452-0.691,3.007-1.037,4.666-1.037h6.081L112.108,53.573z"/>
	<path fill="#FFFFFF" d="M140.787,90.477c-0.691,1.613-1.602,3.019-2.73,4.215c-1.13,1.199-2.454,2.145-3.974,2.834
		c-1.521,0.691-3.11,1.037-4.77,1.037h-5.32c-2.305,0-4.066-0.553-5.287-1.657c-1.222-1.106-1.831-2.466-1.831-4.078v-44.16h7.188
		v44.99c1.475,0.046,2.914,0.058,4.319,0.032c1.405-0.021,2.706-0.518,3.904-1.484c0.968-0.782,1.646-1.809,2.039-3.075
		c0.391-1.266,0.587-2.522,0.587-3.767V48.666h6.91v36.627C141.823,87.137,141.478,88.865,140.787,90.477z"/>
	<path fill="#FFFFFF" d="M171.09,90.477c-0.621,1.613-1.485,3.019-2.591,4.215c-1.106,1.199-2.386,2.145-3.835,2.834
		c-1.452,0.691-3.006,1.037-4.666,1.037h-5.806c-2.304,0-4.065-0.553-5.286-1.657c-1.222-1.106-1.831-2.466-1.831-4.078v-9.744
		h7.188v10.712c0.782,0,1.555,0.014,2.315,0.034c0.76,0.022,1.508,0,2.247-0.068c0.735-0.069,1.449-0.206,2.142-0.415
		c0.692-0.207,1.336-0.539,1.936-1.003c0.968-0.78,1.577-1.668,1.831-2.659c0.252-0.99,0.38-2.107,0.38-3.353V69.537h-18.037v-7.533
		c0-1.843,0.312-3.569,0.934-5.183c0.621-1.612,1.485-3.018,2.591-4.216c1.106-1.198,2.385-2.143,3.835-2.833
		c1.451-0.691,3.007-1.037,4.666-1.037h6.082c2.303,0,4.02,0.599,5.148,1.797c1.128,1.198,1.692,2.649,1.692,4.354v4.7h-6.911
		v-6.013c-1.105,0-2.062-0.011-2.868-0.034s-1.521,0-2.143,0.069s-1.209,0.219-1.762,0.449c-0.553,0.231-1.152,0.599-1.796,1.105
		c-0.876,0.691-1.477,1.544-1.798,2.558c-0.323,1.014-0.483,2.142-0.483,3.386v3.732h17.761v20.455
		C172.024,87.137,171.712,88.865,171.09,90.477z"/>
</g>
<g>
	<path fill="#FFFFFF" d="M325.193,98.077V68.092h-11.154v29.985h-7.391V60.489c0-1.895,0.32-3.671,0.959-5.33
		c0.641-1.658,1.527-3.102,2.664-4.334c1.138-1.231,2.451-2.203,3.943-2.914c1.492-0.71,3.092-1.066,4.797-1.066h6.252
		c2.369,0,4.133,0.616,5.293,1.848c1.161,1.232,1.742,2.725,1.742,4.477v44.907H325.193z M325.193,52.318
		c-1.137,0-2.121-0.012-2.948-0.036c-0.828-0.023-1.562,0-2.203,0.071c-0.64,0.071-1.242,0.224-1.812,0.459
		c-0.567,0.235-1.186,0.613-1.848,1.13c-0.9,0.706-1.518,1.577-1.848,2.611c-0.332,1.036-0.497,2.189-0.497,3.459v3.248h11.154
		L325.193,52.318L325.193,52.318z"/>
	<path fill="#FFFFFF" d="M351.625,51.75v46.328h-7.318V51.75h-6.893v-4.974h20.604v4.974H351.625z"/>
	<path fill="#FFFFFF" d="M381.184,98.077V68.234H370.1v29.843h-7.391V46.775h7.391v16.627h11.084V46.775h7.391v51.302H381.184z"/>
	<path fill="#FFFFFF" d="M412.305,98.077V68.092H401.15v29.985h-7.39V60.489c0-1.895,0.319-3.671,0.959-5.33
		c0.64-1.658,1.527-3.102,2.664-4.334c1.137-1.231,2.451-2.203,3.942-2.914c1.492-0.71,3.093-1.066,4.797-1.066h6.253
		c2.368,0,4.133,0.616,5.295,1.848c1.159,1.232,1.739,2.725,1.739,4.477v44.907H412.305z M412.305,52.318
		c-1.137,0-2.121-0.012-2.948-0.036c-0.83-0.023-1.562,0-2.203,0.071c-0.64,0.071-1.243,0.224-1.812,0.459
		c-0.569,0.235-1.186,0.613-1.849,1.13c-0.899,0.706-1.516,1.577-1.848,2.611c-0.332,1.036-0.497,2.189-0.497,3.459v3.248h11.155
		L412.305,52.318L412.305,52.318z"/>
</g>
<g>
	<path fill="#FFFFFF" d="M275.955,98.832V53.588c0-1.765,0.615-3.268,1.849-4.51c1.234-1.24,3.107-1.861,5.622-1.861h6.643
		c1.812,0,3.511,0.358,5.095,1.074c1.585,0.716,2.981,1.694,4.188,2.935c1.207,1.242,2.15,2.697,2.83,4.367
		c0.68,1.671,1.02,3.461,1.02,5.37v37.87h-7.85V60.031c0-1.289-0.176-2.458-0.529-3.508c-0.352-1.049-1.004-1.933-1.962-2.648
		c-0.704-0.525-1.357-0.906-1.962-1.146c-0.604-0.238-1.245-0.394-1.925-0.465c-0.679-0.071-1.46-0.095-2.339-0.071
		c-0.881,0.024-1.926,0.036-3.133,0.036v46.604L275.955,98.832L275.955,98.832z"/>
</g>
<g>
	<path fill="#FFFFFF" d="M422.127,98.562V53.318c0-1.765,0.615-3.269,1.849-4.51c1.234-1.24,3.106-1.861,5.623-1.861h6.642
		c1.812,0,3.51,0.358,5.096,1.074c1.584,0.716,2.98,1.694,4.188,2.935c1.207,1.242,2.151,2.697,2.83,4.367
		c0.68,1.671,1.02,3.461,1.02,5.369v37.871h-7.85V59.761c0-1.289-0.176-2.457-0.528-3.508c-0.352-1.049-1.006-1.933-1.963-2.648
		c-0.703-0.525-1.357-0.906-1.962-1.146c-0.604-0.238-1.246-0.394-1.925-0.465c-0.679-0.071-1.458-0.095-2.339-0.072
		c-0.88,0.025-1.925,0.036-3.133,0.036v46.604H422.127L422.127,98.562z"/>
</g>
<g>
	<path fill="#FFD576" d="M240.843,127.43V82.186c0-1.766,0.616-3.269,1.849-4.511c1.234-1.239,3.107-1.86,5.623-1.86h6.643
		c1.812,0,3.51,0.357,5.095,1.074c1.584,0.715,2.98,1.693,4.188,2.935c1.21,1.241,2.151,2.696,2.83,4.366
		c0.681,1.672,1.021,3.461,1.021,5.371v37.869h-7.851V88.629c0-1.289-0.175-2.457-0.526-3.508c-0.353-1.051-1.006-1.934-1.963-2.648
		c-0.703-0.524-1.358-0.906-1.963-1.146c-0.604-0.238-1.244-0.395-1.925-0.465c-0.68-0.071-1.459-0.096-2.339-0.071
		s-1.925,0.035-3.133,0.035v46.604H240.843L240.843,127.43z"/>
</g>
<g>
	<path fill="#FFD576" d="M207.06,68.389V23.468c-0.829-0.045-1.669,0.046-2.521,0.277c-0.854,0.231-1.614,0.587-2.281,1.071
		c-0.668,0.483-1.221,1.095-1.659,1.831c-0.438,0.737-0.657,1.589-0.657,2.557v39.185h-7.117V23.468
		c-2.442-0.092-4.297,0.496-5.563,1.763c-1.268,1.268-1.9,3.145-1.9,5.632v37.526h-6.91V31.761c0-1.75,0.265-3.421,0.795-5.01
		c0.528-1.589,1.278-2.994,2.247-4.215c0.967-1.221,2.13-2.2,3.488-2.937c1.358-0.736,2.892-1.106,4.597-1.106h3.179
		c1.013,0,1.992,0.197,2.938,0.588c0.943,0.392,1.785,0.911,2.521,1.555c0.875-0.644,1.797-1.163,2.765-1.555
		c0.968-0.391,2.074-0.588,3.317-0.588h2.627c0.875,0,1.75,0.15,2.626,0.449c0.875,0.301,1.659,0.703,2.35,1.21
		c0.69,0.507,1.254,1.105,1.693,1.796c0.437,0.691,0.656,1.452,0.656,2.281V68.39L207.06,68.389L207.06,68.389z"/>
</g>
<g>
	<path fill="#FFD576" d="M235.424,85.71c-2.455-0.321-4.521,0.673-6.279-0.979c-0.724-0.682-1.313-0.012-1.908,0.281
		c-1.984,0.979-4.102,1.174-6.223,0.824c-2.454-0.402-4.531-1.535-5.262-4.125c-0.727-2.57-0.115-4.922,2.041-6.561
		c1.286-0.979,1.554-1.682,0.713-3.176c-1.198-2.135-0.729-4.292,0.961-6.074c1.76-1.858,5.219-2.383,7.704-1.21
		c1.898,0.897,2.809,2.419,2.751,4.54c-0.051,1.826-0.941,3.258-2.418,4.087c-1.926,1.082-1.514,1.994-0.192,3.135
		c0.354,0.307,0.642,0.692,0.938,1.06c0.726,0.895,1.352,1.028,1.826-0.21c0.227-0.587,0.494-1.159,0.674-1.761
		c0.562-1.88,1.914-2.601,3.761-2.118c1.023,0.267,0.661,0.892,0.535,1.458c-0.379,1.699-0.821,3.434-1.911,4.789
		c-1.195,1.488-1.029,2.564,0.356,3.734C234.114,83.932,234.562,84.665,235.424,85.71z M223.531,82.6
		c0.958-0.014,2.062-0.047,2.479-0.978c0.379-0.849-0.72-1.243-1.167-1.827c-0.522-0.682-1.095-1.348-1.747-1.902
		c-0.585-0.498-0.854-1.774-1.967-1.188c-0.881,0.465-1.167,1.442-1.207,2.42C219.842,81.124,221.367,82.578,223.531,82.6z
		 M222.14,69.315c0.135,1.051,0.331,2.626,1.586,2.656c1.192,0.029,2.15-1.281,2.264-2.63c0.101-1.201-0.473-2.233-1.824-2.292
		C222.813,66.992,222.261,67.934,222.14,69.315z"/>
</g>
</svg>
