<?xml version="1.0" encoding="utf-8"?>
<!-- Generator: Adobe Illustrator 16.0.0, SVG Export Plug-In . SVG Version: 6.00 Build 0)  -->
<!DOCTYPE svg PUBLIC "-//W3C//DTD SVG 1.1//EN" "http://www.w3.org/Graphics/SVG/1.1/DTD/svg11.dtd">
<svg version="1.1" id="Layer_1" xmlns="http://www.w3.org/2000/svg" xmlns:xlink="http://www.w3.org/1999/xlink" x="0px" y="0px"
	 width="450px" height="146px" viewBox="0 0 450 146" style="enable-background:new 0 0 450 146;" xml:space="preserve">
<g>
	<path style="fill-rule:evenodd;clip-rule:evenodd;" d="M263.783,142.405c-17.439,4.864-34.711,4.615-51.793-1.069
		c-11.972-3.984-22.505-10.211-30.232-20.479c-1.478-1.963-2.902-4.063-3.837-6.314c-0.962-2.321-2.351-2.85-4.706-2.848
		c-55.893,0.05-111.787,0.031-167.681-0.023c-1.858-0.001-4.867,0.945-4.771-2.198c0.086-2.837,2.963-1.888,4.741-1.889
		c59.091-0.038,118.182-0.019,177.273-0.079c2.443-0.004,3.694,0.559,4.797,3.014c5.789,12.875,16.393,20.67,28.946,26.026
		c14.445,6.165,29.583,7.785,45.13,5.962C262.357,142.424,263.073,142.438,263.783,142.405z M1.646,109.042
		c0.126,0.201,0.253,0.401,0.38,0.603c1.586-0.211,3.171-0.605,4.757-0.605c53.509-0.035,107.02-0.033,160.53-0.035
		c4.536-0.002,9.076-0.092,13.606,0.068c0.984,0.034,2.505,0.744,2.812,1.523c4.016,10.185,11.452,17.217,20.597,22.682
		c6.643,3.97,13.736,6.844,21.538,8.527c-5.858-2.432-11.656-4.426-17.067-7.178c-10.154-5.162-18.586-12.318-22.988-23.189
		c-1.042-2.57-2.249-3.23-4.896-3.225c-52.686,0.082-105.371,0.059-158.056,0.059c-5.98-0.001-11.96-0.039-17.939,0.033
		C3.827,108.318,2.737,108.784,1.646,109.042z"/>
	<path style="fill-rule:evenodd;clip-rule:evenodd;" d="M184.622,2.43c6.185-0.788,12.35-1.973,18.559-2.29
		c18.835-0.961,36.491,2.951,52.14,13.961c6.675,4.695,12.141,10.575,15.477,18.132c0.918,2.083,2.402,1.886,4.025,1.886
		c29.188,0.005,58.377,0.009,87.564,0.01c27.126,0.001,54.25,0,81.375,0c0.619,0,1.388-0.229,1.823,0.053
		c0.768,0.498,1.816,1.293,1.841,1.992c0.021,0.662-1.011,1.582-1.789,1.98c-0.657,0.336-1.615,0.099-2.44,0.099
		c-59.407,0.015-118.815,0.019-178.223,0.079c-2.123,0.003-3.19-0.591-4.106-2.657c-5.673-12.805-16.061-20.663-28.476-26.101
		c-14.701-6.439-30.118-8.154-45.992-6.238c-0.505,0.062-1.019,0.051-1.529,0.074C184.788,3.083,184.705,2.757,184.622,2.43z
		 M446.62,36.898c-0.104-0.244-0.207-0.489-0.311-0.733c-1.765,0.215-3.527,0.613-5.29,0.615
		c-30.218,0.039-60.436,0.027-90.652,0.027c-27.33,0-54.661-0.036-81.99,0.059c-2.557,0.009-3.717-0.757-4.729-3.145
		c-1.309-3.089-3.086-6.093-5.182-8.718c-8.004-10.023-18.812-15.791-30.812-19.61c-0.905-0.288-1.852-0.447-3.449-0.823
		c5.489,2.337,10.46,4.089,15.087,6.496c10.188,5.3,18.859,12.342,23.145,23.434c1,2.585,2.28,3.057,4.706,3.051
		c26.917-0.065,53.835-0.035,80.753-0.035c31.66,0,63.321,0.002,94.983-0.033C444.126,37.482,445.374,37.102,446.62,36.898z"/>
</g>
<g>
	<path d="M28.611,99.1V54.179c-0.829-0.046-1.67,0.046-2.522,0.276c-0.853,0.231-1.613,0.587-2.281,1.071
		c-0.668,0.484-1.221,1.095-1.659,1.832c-0.438,0.737-0.656,1.589-0.656,2.557V99.1h-7.118V54.179
		c-2.442-0.092-4.297,0.495-5.563,1.762c-1.268,1.267-1.9,3.144-1.9,5.632V99.1H0V62.471c0-1.75,0.265-3.42,0.795-5.01
		c0.529-1.59,1.278-2.995,2.246-4.216c0.968-1.22,2.13-2.2,3.49-2.937c1.358-0.737,2.891-1.106,4.596-1.106h3.179
		c1.013,0,1.993,0.197,2.937,0.587c0.944,0.392,1.785,0.911,2.522,1.555c0.875-0.644,1.797-1.163,2.765-1.555
		c0.967-0.391,2.073-0.587,3.317-0.587h2.626c0.875,0,1.75,0.15,2.626,0.449c0.875,0.3,1.659,0.703,2.35,1.209
		c0.691,0.507,1.255,1.105,1.693,1.797c0.438,0.691,0.657,1.451,0.657,2.28V99.1H28.611z"/>
	<path d="M59.502,99.029V69.866h-10.85v29.164h-7.188V62.471c0-1.842,0.311-3.569,0.933-5.183c0.622-1.612,1.485-3.018,2.592-4.216
		c1.105-1.197,2.384-2.143,3.835-2.833c1.451-0.691,3.006-1.037,4.665-1.037h6.082c2.303,0,4.019,0.599,5.149,1.797
		c1.128,1.199,1.693,2.649,1.693,4.354v43.676H59.502z M59.502,54.524c-1.105,0-2.062-0.011-2.868-0.035
		c-0.807-0.022-1.521,0-2.143,0.069c-0.622,0.069-1.209,0.217-1.762,0.446c-0.553,0.229-1.152,0.596-1.796,1.1
		c-0.876,0.687-1.476,1.533-1.797,2.54c-0.323,1.007-0.484,2.129-0.484,3.365v3.158h10.85V54.524z"/>
	<path d="M85.21,53.971v45.058h-7.118V53.971h-6.704v-4.837H91.43v4.837H85.21z"/>
	<path d="M112.646,54.041c-1.106,0-2.062-0.011-2.868-0.035c-0.807-0.022-1.521,0-2.143,0.069c-0.622,0.069-1.209,0.219-1.762,0.449
		c-0.553,0.231-1.152,0.6-1.797,1.106c-0.875,0.691-1.475,1.544-1.796,2.557c-0.323,1.014-0.484,2.143-0.484,3.387v3.731h7.878v4.7
		h-7.878v24.257h10.711v4.768h-10.781c-2.304,0-4.066-0.553-5.287-1.658c-1.221-1.105-1.832-2.464-1.832-4.077V62.471
		c0-1.842,0.311-3.569,0.934-5.183c0.622-1.612,1.485-3.018,2.591-4.216c1.105-1.197,2.384-2.143,3.835-2.833
		c1.452-0.691,3.006-1.037,4.665-1.037h6.082L112.646,54.041z"/>
	<path d="M141.325,90.943c-0.69,1.614-1.601,3.02-2.729,4.217c-1.13,1.198-2.454,2.143-3.974,2.833
		c-1.521,0.691-3.11,1.036-4.769,1.036h-5.321c-2.304,0-4.067-0.553-5.287-1.658c-1.221-1.105-1.831-2.464-1.831-4.077v-44.16h7.187
		v44.989c1.474,0.047,2.914,0.059,4.319,0.035c1.405-0.023,2.706-0.519,3.904-1.486c0.968-0.783,1.647-1.808,2.039-3.075
		c0.391-1.267,0.587-2.522,0.587-3.767V49.134h6.911v36.628C142.362,87.604,142.017,89.332,141.325,90.943z"/>
	<path d="M171.629,90.943c-0.622,1.614-1.486,3.02-2.591,4.217c-1.106,1.198-2.384,2.143-3.836,2.833
		c-1.451,0.691-3.006,1.036-4.665,1.036h-5.805c-2.304,0-4.067-0.553-5.287-1.658c-1.222-1.105-1.832-2.464-1.832-4.077v-9.745
		h7.188v10.713c0.783,0,1.555,0.012,2.315,0.034c0.76,0.023,1.508,0,2.247-0.069c0.736-0.068,1.451-0.207,2.142-0.414
		c0.691-0.208,1.336-0.541,1.936-1.003c0.967-0.782,1.577-1.669,1.831-2.66c0.253-0.99,0.38-2.107,0.38-3.353V70.004h-18.037v-7.533
		c0-1.842,0.312-3.569,0.933-5.183c0.622-1.612,1.486-3.018,2.591-4.216c1.106-1.197,2.385-2.143,3.835-2.833
		c1.451-0.691,3.007-1.037,4.666-1.037h6.081c2.303,0,4.019,0.599,5.148,1.797c1.129,1.199,1.694,2.649,1.694,4.354v4.7h-6.912
		v-6.012c-1.106,0-2.062-0.011-2.868-0.035c-0.807-0.022-1.52,0-2.142,0.069c-0.622,0.069-1.209,0.219-1.762,0.449
		c-0.553,0.231-1.152,0.6-1.796,1.106c-0.876,0.691-1.475,1.544-1.797,2.557c-0.323,1.014-0.483,2.143-0.483,3.387v3.731h17.761
		v20.457C172.563,87.604,172.251,89.332,171.629,90.943z"/>
</g>
<g>
	<path d="M325.732,98.545V68.56h-11.156v29.985h-7.39V60.957c0-1.894,0.32-3.67,0.96-5.329c0.64-1.658,1.527-3.102,2.664-4.334
		c1.137-1.231,2.451-2.203,3.943-2.913c1.492-0.711,3.092-1.066,4.796-1.066h6.253c2.369,0,4.133,0.616,5.293,1.847
		c1.16,1.232,1.742,2.725,1.742,4.477v44.907H325.732z M325.732,52.786c-1.137,0-2.121-0.012-2.949-0.036
		c-0.829-0.024-1.562,0-2.203,0.07c-0.639,0.072-1.242,0.224-1.812,0.459c-0.568,0.235-1.185,0.613-1.847,1.13
		c-0.9,0.707-1.518,1.577-1.848,2.611c-0.332,1.036-0.498,2.189-0.498,3.459v3.248h11.156V52.786z"/>
	<path d="M352.164,52.217v46.328h-7.319V52.217h-6.892v-4.974h20.605v4.974H352.164z"/>
	<path d="M381.722,98.545V68.702h-11.084v29.843h-7.39V47.243h7.39V63.87h11.084V47.243h7.39v51.302H381.722z"/>
	<path d="M412.844,98.545V68.56h-11.155v29.985h-7.39V60.957c0-1.894,0.319-3.67,0.958-5.329c0.64-1.658,1.528-3.102,2.665-4.334
		c1.137-1.231,2.451-2.203,3.943-2.913c1.492-0.711,3.092-1.066,4.796-1.066h6.254c2.368,0,4.131,0.616,5.293,1.847
		c1.16,1.232,1.741,2.725,1.741,4.477v44.907H412.844z M412.844,52.786c-1.137,0-2.121-0.012-2.948-0.036
		c-0.83-0.024-1.564,0-2.203,0.07c-0.64,0.072-1.244,0.224-1.812,0.459s-1.185,0.613-1.848,1.13c-0.9,0.707-1.516,1.577-1.847,2.611
		c-0.333,1.036-0.497,2.189-0.497,3.459v3.248h11.155V52.786z"/>
</g>
<g>
	<path d="M276.494,99.301V54.056c0-1.765,0.615-3.269,1.848-4.51c1.234-1.241,3.107-1.862,5.623-1.862h6.643
		c1.811,0,3.509,0.358,5.094,1.075c1.585,0.715,2.982,1.694,4.189,2.935c1.207,1.242,2.15,2.697,2.829,4.367
		c0.68,1.671,1.019,3.461,1.019,5.369v37.872h-7.848V60.499c0-1.289-0.176-2.458-0.529-3.508c-0.352-1.049-1.005-1.932-1.962-2.648
		c-0.704-0.525-1.358-0.906-1.962-1.146c-0.604-0.238-1.245-0.394-1.926-0.465c-0.679-0.072-1.459-0.095-2.338-0.072
		c-0.881,0.024-1.926,0.036-3.133,0.036v46.605H276.494z"/>
</g>
<g>
	<path d="M422.666,99.029V53.785c0-1.765,0.616-3.269,1.849-4.51c1.233-1.24,3.107-1.861,5.623-1.861h6.642
		c1.811,0,3.51,0.358,5.095,1.074c1.584,0.716,2.98,1.695,4.188,2.935c1.207,1.242,2.15,2.697,2.83,4.367
		c0.679,1.672,1.019,3.461,1.019,5.37v37.87h-7.849V60.229c0-1.289-0.176-2.458-0.528-3.508c-0.353-1.049-1.006-1.933-1.963-2.649
		c-0.703-0.525-1.358-0.906-1.962-1.146c-0.604-0.238-1.246-0.394-1.925-0.465s-1.458-0.095-2.34-0.072
		c-0.88,0.025-1.924,0.036-3.132,0.036v46.604H422.666z"/>
</g>
<g>
	<path style="fill:#BD9631;" d="M241.381,127.897V82.652c0-1.764,0.617-3.268,1.85-4.51c1.233-1.24,3.107-1.861,5.623-1.861h6.642
		c1.812,0,3.509,0.358,5.095,1.074c1.584,0.716,2.98,1.694,4.188,2.935c1.209,1.242,2.151,2.697,2.83,4.367
		c0.68,1.672,1.02,3.462,1.02,5.37v37.87h-7.85V89.096c0-1.289-0.176-2.457-0.527-3.508c-0.352-1.049-1.007-1.933-1.963-2.648
		c-0.704-0.525-1.359-0.906-1.963-1.146c-0.604-0.237-1.244-0.393-1.924-0.465c-0.68-0.07-1.459-0.094-2.34-0.07
		c-0.879,0.023-1.924,0.035-3.133,0.035v46.604H241.381z"/>
</g>
<g>
	<path style="fill:#BD9631;" d="M207.599,68.856v-44.92c-0.829-0.045-1.67,0.046-2.522,0.276c-0.853,0.231-1.614,0.587-2.281,1.071
		c-0.668,0.483-1.221,1.095-1.659,1.832c-0.438,0.737-0.657,1.589-0.657,2.557v39.185h-7.118v-44.92
		c-2.442-0.092-4.297,0.496-5.563,1.762c-1.268,1.268-1.9,3.145-1.9,5.632v37.526h-6.911V32.229c0-1.75,0.265-3.421,0.794-5.01
		c0.529-1.59,1.279-2.995,2.247-4.216c0.967-1.22,2.13-2.2,3.49-2.937c1.358-0.736,2.891-1.106,4.596-1.106h3.179
		c1.012,0,1.992,0.197,2.937,0.588c0.944,0.392,1.785,0.91,2.522,1.555c0.875-0.645,1.797-1.163,2.764-1.555
		c0.968-0.391,2.074-0.588,3.317-0.588h2.626c0.875,0,1.75,0.15,2.626,0.449c0.874,0.3,1.659,0.703,2.349,1.21
		c0.691,0.507,1.255,1.105,1.694,1.796c0.437,0.691,0.656,1.451,0.656,2.281v44.16H207.599z"/>
</g>
<g>
	<path style="fill-rule:evenodd;clip-rule:evenodd;fill:#BD9631;" d="M235.963,86.178c-2.456-0.322-4.521,0.672-6.279-0.979
		c-0.724-0.681-1.315-0.012-1.908,0.28c-1.986,0.979-4.102,1.175-6.223,0.825c-2.454-0.403-4.531-1.536-5.262-4.124
		c-0.726-2.572-0.116-4.924,2.041-6.561c1.286-0.979,1.554-1.683,0.713-3.178c-1.198-2.134-0.729-4.292,0.961-6.074
		c1.76-1.858,5.219-2.383,7.704-1.21c1.9,0.897,2.809,2.419,2.752,4.54c-0.051,1.826-0.941,3.259-2.418,4.088
		c-1.927,1.08-1.514,1.993-0.193,3.135c0.354,0.306,0.641,0.692,0.939,1.06c0.725,0.894,1.352,1.029,1.826-0.21
		c0.226-0.587,0.495-1.16,0.674-1.761c0.561-1.88,1.913-2.602,3.76-2.118c1.023,0.268,0.662,0.892,0.535,1.459
		c-0.379,1.698-0.82,3.433-1.91,4.788c-1.195,1.488-1.029,2.564,0.355,3.734C234.652,84.398,235.1,85.133,235.963,86.178z
		 M224.069,83.066c0.959-0.012,2.062-0.045,2.479-0.977c0.379-0.849-0.721-1.244-1.168-1.828c-0.522-0.682-1.094-1.348-1.746-1.902
		c-0.585-0.498-0.856-1.774-1.967-1.189c-0.881,0.466-1.167,1.443-1.208,2.422C220.381,81.592,221.905,83.045,224.069,83.066z
		 M222.679,69.782c0.135,1.051,0.332,2.627,1.585,2.657c1.193,0.028,2.151-1.282,2.264-2.63c0.101-1.201-0.472-2.234-1.825-2.292
		C223.353,67.459,222.799,68.402,222.679,69.782z"/>
</g>
</svg>
